# xmcd
#
# Track frame offsets:
#	150
#	13352
#	25045
#	44670
#	58610
#	69165
#	79255
#	93480
#	104490
#	117792
#	132790
#	145225
#	162855
#	175055
#	190305
#	200820
#	212895
#	227870
#	239317
#	250960
#
# Disc length: 3483 seconds
#
# Revision: 0
# Processed by: cddbd v1.5.2PL0 Copyright (c) Steve Scherf et al.
# Submitted via: audiograbber 1.83.01
#
DISCID=220d9914
DTITLE=Kenny Rogers - 20 Golden Greats
DYEAR=1999
DGENRE=Country
TTITLE0=Ruby, don't take your love to town
TTITLE1=Me and Bobby McGee
TTITLE2=Lay it down
TTITLE3=loser
TTITLE4=Ticket to nowhere
TTITLE5=New design
TTITLE6=Sunshine
TTITLE7=Always leaving, always gone
TTITLE8=Shine on ruby mountain
TTITLE9=condition
TTITLE10=Reuben James
TTITLE11=Something's burning
TTITLE12=What am i gonna do
TTITLE13=For the good times
TTITLE14=Good time liberator
TTITLE15=Elvira
TTITLE16=All god's lonely children
TTITLE17=If wishes were horses
TTITLE18=Girl, get a hold of yourself
TTITLE19=Once again she's all alone
EXTD=
EXTT0=
EXTT1=
EXTT2=
EXTT3=
EXTT4=
EXTT5=
EXTT6=
EXTT7=
EXTT8=
EXTT9=
EXTT10=
EXTT11=
EXTT12=
EXTT13=
EXTT14=
EXTT15=
EXTT16=
EXTT17=
EXTT18=
EXTT19=
PLAYORDER=
